<svg width="676" height="134" viewBox="0 0 676 134" fill="none" xmlns="http://www.w3.org/2000/svg">
<path d="M60.2621 133.337H56L68.1774 102.379H72.338L84.5153 133.337H80.2532L70.3084 107.302H70.004L60.2621 133.337ZM61.7842 121.219H78.7311V124.533H61.7842V121.219ZM140.227 133.337H129.977V102.379H140.633C143.88 102.379 146.62 103.041 148.852 104.272C151.186 105.503 152.911 107.302 154.129 109.574C155.347 111.846 155.956 114.592 155.956 117.811C155.956 121.03 155.347 123.775 154.129 126.142C152.911 128.509 151.085 130.213 148.751 131.538C146.518 132.675 143.677 133.337 140.227 133.337ZM134.037 130.024H140.024C142.764 130.024 144.996 129.55 146.823 128.509C148.649 127.467 149.969 126.142 150.882 124.249C151.795 122.45 152.201 120.272 152.201 117.716C152.201 115.254 151.795 113.077 150.882 111.278C149.969 109.479 148.649 108.059 146.924 107.112C145.199 106.166 142.967 105.598 140.43 105.598H134.037V130.024ZM176.556 133.337V102.379H196.649V105.692H180.615V116.201H195.634V119.515H180.615V130.024H196.851V133.337H176.556ZM215.726 105.692V102.379H240.588V105.692H230.136V133.337H226.077V105.692H215.726ZM258.043 133.337H253.781L265.958 102.379H270.119L282.296 133.337H278.135L268.19 107.302H267.886L258.043 133.337ZM259.565 121.219H276.512V124.533H259.565V121.219ZM319.335 110.142C319.132 108.627 318.321 107.396 317.001 106.544C315.581 105.692 313.957 105.314 311.928 105.314C310.507 105.314 309.188 105.503 308.071 105.976C306.955 106.45 306.143 107.018 305.534 107.775C304.926 108.533 304.621 109.479 304.621 110.426C304.621 111.278 304.824 111.941 305.23 112.604C305.636 113.172 306.245 113.645 306.854 114.118C307.564 114.497 308.274 114.781 308.985 115.065C309.695 115.349 310.405 115.538 311.014 115.633L314.363 116.485C315.276 116.675 316.19 116.959 317.204 117.337C318.321 117.716 319.335 118.189 320.249 118.852C321.263 119.515 322.075 120.272 322.684 121.314C323.293 122.355 323.597 123.491 323.597 125.006C323.597 126.71 323.09 128.225 322.177 129.55C321.263 130.876 319.843 132.012 318.118 132.769C316.291 133.527 314.16 134 311.623 134C309.289 134 307.158 133.621 305.433 132.959C303.708 132.201 302.389 131.254 301.374 129.929C300.359 128.604 299.852 127.183 299.75 125.479H303.911C304.012 126.615 304.418 127.657 305.129 128.414C305.839 129.172 306.854 129.74 307.97 130.118C309.086 130.497 310.304 130.686 311.623 130.686C313.145 130.686 314.566 130.497 315.784 130.024C317.001 129.55 318.016 128.888 318.727 128.036C319.437 127.183 319.843 126.237 319.843 125.101C319.843 124.059 319.538 123.207 318.93 122.544C318.321 121.882 317.509 121.408 316.494 120.935C315.479 120.556 314.363 120.178 313.247 119.893L309.188 118.757C306.549 118.095 304.52 117.053 302.997 115.822C301.475 114.497 300.765 112.888 300.765 110.71C300.765 109.006 301.272 107.491 302.287 106.166C303.302 104.84 304.621 103.893 306.346 103.136C308.071 102.379 309.999 102 312.13 102C314.262 102 316.19 102.379 317.813 103.041C319.437 103.704 320.756 104.746 321.771 105.976C322.786 107.207 323.293 108.627 323.293 110.142H319.335ZM343.995 133.337V102.379H348.054V117.716H348.46L363.377 102.379H368.654L354.65 116.296L368.552 133.337H363.681L352.214 118.947L348.054 123.302V133.337H343.995ZM414.014 133.337V102.379H425.583C427.917 102.379 429.845 102.757 431.266 103.515C432.788 104.272 433.904 105.219 434.614 106.45C435.325 107.68 435.731 109.101 435.731 110.615C435.731 111.941 435.528 113.077 434.919 113.929C434.411 114.781 433.803 115.444 432.889 116.012C432.077 116.485 431.164 116.864 430.251 117.148V117.432C431.266 117.527 432.28 117.811 433.295 118.473C434.31 119.041 435.223 119.988 435.832 121.03C436.441 122.071 436.847 123.586 436.847 125.195C436.847 126.71 436.441 128.13 435.731 129.361C435.02 130.592 433.803 131.538 432.179 132.296C430.555 133.053 428.424 133.432 425.786 133.432H414.014V133.337ZM418.074 130.024H426.09C428.729 130.024 430.555 129.55 431.672 128.604C432.788 127.657 433.295 126.521 433.295 125.101C433.295 124.059 432.991 123.112 432.483 122.166C431.875 121.314 431.063 120.556 430.048 119.988C429.033 119.42 427.714 119.136 426.293 119.136H418.074V130.024ZM418.074 116.012H425.583C426.801 116.012 427.917 115.822 428.83 115.349C429.845 114.876 430.555 114.308 431.164 113.456C431.773 112.604 432.077 111.657 432.077 110.615C432.077 109.29 431.57 108.059 430.555 107.112C429.541 106.166 427.917 105.692 425.684 105.692H418.074V116.012ZM457.447 133.337V102.379H468.711C471.349 102.379 473.481 102.757 475.104 103.609C476.728 104.462 478.047 105.598 478.757 107.018C479.569 108.438 479.975 110.047 479.975 111.941C479.975 113.74 479.569 115.349 478.757 116.769C477.946 118.189 476.728 119.325 475.104 120.083C473.481 120.84 471.349 121.314 468.813 121.314H459.781V117.905H468.711C470.436 117.905 471.958 117.621 472.973 117.148C474.089 116.675 474.901 116.012 475.307 115.065C475.814 114.213 476.017 113.077 476.017 111.846C476.017 110.615 475.814 109.479 475.307 108.627C474.8 107.68 473.988 107.018 472.973 106.45C471.857 105.976 470.436 105.692 468.61 105.692H461.506V133.337H457.447ZM473.075 119.42L481.294 133.337H476.626L468.61 119.42H473.075ZM501.691 133.337H497.429L509.607 102.379H513.767L525.945 133.337H521.683L511.738 107.302H511.433L501.691 133.337ZM503.315 121.219H520.262V124.533H503.315V121.219ZM571.204 102.379V133.337H567.348L549.285 109.006H548.98V133.337H544.921V102.379H548.777L566.942 126.805H567.246V102.379H571.204ZM603.271 133.337H593.022V102.379H603.677C606.924 102.379 609.664 103.041 611.897 104.272C614.231 105.503 615.956 107.302 617.173 109.574C618.391 111.846 619 114.592 619 117.811C619 121.03 618.391 123.775 617.173 126.142C615.956 128.509 614.129 130.213 611.795 131.538C609.461 132.675 606.62 133.337 603.271 133.337ZM596.979 130.024H602.966C605.706 130.024 607.939 129.55 609.765 128.509C611.592 127.562 612.911 126.142 613.825 124.249C614.738 122.45 615.144 120.272 615.144 117.716C615.144 115.254 614.738 113.077 613.825 111.278C612.911 109.479 611.592 108.059 609.867 107.112C608.142 106.166 605.909 105.598 603.372 105.598H596.979V130.024Z" fill="black"/>
<path d="M219.35 91.2033H233.203V39.2521H240.13V25.3984H211.268V39.2521H219.35V91.2033ZM270.146 91.2033H284L278.228 25.3984H255.138L248.211 91.2033H263.22V80.8131H270.146V91.2033ZM264.374 69.2684L266.106 38.0976L268.992 69.2684H264.374ZM294.39 91.2033H320.943V78.5041H308.244V25.3984H294.39V91.2033ZM345.187 77.3497V63.496H357.886V50.7968H345.187V39.2521H357.886V25.3984H331.333V91.2033H359.041V77.3497H345.187ZM389.057 25.3984L388.48 55.4147L383.285 25.3984H369.431V91.2033H383.285L382.707 59.4553L389.057 91.2033H401.756V25.3984H389.057ZM419.073 91.2033H434.081V39.2521H441.008V25.3984H412.146V39.2521H419.073V91.2033Z" fill="#98324E"/>
<path d="M488.342 25.3984L485.455 65.8049L482.569 25.3984H468.715L465.829 65.8049L462.943 25.3984H449.089L451.976 54.7219L456.016 91.2032H473.333L475.065 60.0325L477.951 91.2032H495.268L502.195 25.3984H488.342ZM528.171 91.2032C547.797 90.0488 543.756 72.1544 543.756 54.7219C543.756 37.2894 543.756 24.8211 527.594 24.2439C511.431 24.8211 511.431 37.4049 511.431 54.8374C511.431 72.2699 507.968 90.626 528.171 91.2032ZM527.594 79.6585C523.553 79.0813 524.13 65.8048 524.13 54.7219C524.13 51.9512 523.553 36.9431 527.594 36.9431C531.634 36.9431 531.022 51.374 531.057 54.7219C531.172 65.9203 531.208 80.1748 527.594 79.6585ZM586.472 91.2032V62.5047C586.472 60.9896 585.616 59.6045 584.26 58.9269L580.699 57.1463C584.624 53.9138 586.472 50.7967 586.472 42.1382C586.472 36.3658 585.317 27.1301 578.39 25.3984H555.301V91.2032H569.27V61.187H571.463C572.739 61.187 573.772 62.2207 573.772 63.4959V63.4959V91.2032H586.472ZM575.504 43.8699C575.513 43.2927 575.504 49.6423 572.618 49.6423H569.27V38.0976H573.772C575.504 39.252 575.504 43.8699 575.504 43.8699ZM618.797 91.2032H632.65L623.415 55.4146L631.496 25.3984H617.642L612.447 51.9512L613.024 25.3984H598.132V91.2032H613.024L611.87 68.691L612.447 58.878L618.797 91.2032ZM675.366 91.2032L667.285 55.9919L673.057 25.3984H659.203L657.472 47.3333L654.585 25.3984H640.732L647.659 55.9919L639.577 91.2032H654.585L657.472 64.6504L660.358 91.2032H675.366Z" fill="#737373"/>
<path fill-rule="evenodd" clip-rule="evenodd" d="M7.38862 91.4341C10.5057 44.4471 49.2959 7.38862 96.8602 7.38862C144.309 7.38862 183.215 44.4471 186.332 91.4341H193.72C190.488 40.4065 148.35 0 96.8602 0C45.2553 0 3.11707 40.4065 0 91.4341H7.38862Z" fill="#98324E"/>
<path fill-rule="evenodd" clip-rule="evenodd" d="M107.25 41.4455V34.0569V23.3203C142 28.0537 169.13 56.3382 172.016 91.3187H178.712C175.595 49.9886 141.076 16.1626 99.8618 16.1626V22.6276V33.2488V40.5219V62.6878L107.25 69.0374V41.4455Z" fill="#98324E"/>
<path fill-rule="evenodd" clip-rule="evenodd" d="M15.0082 91.4341H21.7041C24.4748 56.3382 51.7204 28.0537 86.5854 23.3203V33.9415V41.3301V69.0374L93.974 62.6878V40.5219V33.2488V22.6276V16.1626C52.644 16.278 18.1253 50.1041 15.0082 91.4341Z" fill="#98324E"/>
<path fill-rule="evenodd" clip-rule="evenodd" d="M120.758 45.6017C138.767 53.7984 151.698 71.0001 154.006 91.3188H161.395C158.855 64.3041 139.345 42.1383 113.6 35.3269H113.485V42.831V80.4667L96.8602 65.9204L80.2358 80.5822V42.831V35.3269C80.1203 35.3269 80.0049 35.3269 79.8894 35.4424C53.7984 44.1009 35.0959 62.6879 32.3252 91.4342H39.7138C41.9073 71.1155 54.9528 53.9139 72.8471 45.7171V96.5139L78.3886 91.7806L96.8602 76.1952L113.369 90.0489L114.87 91.3188L120.758 96.3984V45.6017Z" fill="#98324E"/>
</svg>
