<svg width="609" height="128" viewBox="0 0 609 128" fill="none" xmlns="http://www.w3.org/2000/svg">
<path d="M19.2 122.1H15L27 89.4H31.1L43.1 122.1H38.9L29.1 94.6H28.8L19.2 122.1ZM20.7 109.3H37.4V112.8H20.7V109.3ZM98 122.1H87.9V89.4H98.4C101.6 89.4 104.3 90.1 106.5 91.4C108.8 92.7 110.5 94.6 111.7 97C112.9 99.4 113.5 102.3 113.5 105.7C113.5 109.1 112.9 112 111.7 114.5C110.5 117 108.7 118.8 106.4 120.2C104.2 121.4 101.4 122.1 98 122.1ZM91.9 118.6H97.8C100.5 118.6 102.7 118.1 104.5 117C106.3 115.9 107.6 114.5 108.5 112.5C109.4 110.6 109.8 108.3 109.8 105.6C109.8 103 109.4 100.7 108.5 98.8C107.6 96.9 106.3 95.4 104.6 94.4C102.9 93.4 100.7 92.8 98.2 92.8H91.9V118.6ZM133.8 122.1V89.4H153.6V92.9H137.8V104H152.6V107.5H137.8V118.6H153.8V122.1H133.8ZM172.4 92.9V89.4H196.9V92.9H186.6V122.1H182.6V92.9H172.4ZM214.1 122.1H209.9L221.9 89.4H226L238 122.1H233.9L224.1 94.6H223.8L214.1 122.1ZM215.6 109.3H232.3V112.8H215.6V109.3ZM274.5 97.6C274.3 96 273.5 94.7 272.2 93.8C270.8 92.9 269.2 92.5 267.2 92.5C265.8 92.5 264.5 92.7 263.4 93.2C262.3 93.7 261.5 94.3 260.9 95.1C260.3 95.9 260 96.9 260 97.9C260 98.8 260.2 99.5 260.6 100.2C261 100.8 261.6 101.3 262.2 101.8C262.9 102.2 263.6 102.5 264.3 102.8C265 103.1 265.7 103.3 266.3 103.4L269.6 104.3C270.5 104.5 271.4 104.8 272.4 105.2C273.5 105.6 274.5 106.1 275.4 106.8C276.4 107.5 277.2 108.3 277.8 109.4C278.4 110.5 278.7 111.7 278.7 113.3C278.7 115.1 278.2 116.7 277.3 118.1C276.4 119.5 275 120.7 273.3 121.5C271.5 122.3 269.4 122.8 266.9 122.8C264.6 122.8 262.5 122.4 260.8 121.7C259.1 120.9 257.8 119.9 256.8 118.5C255.8 117.1 255.3 115.6 255.2 113.8H259.3C259.4 115 259.8 116.1 260.5 116.9C261.2 117.7 262.2 118.3 263.3 118.7C264.4 119.1 265.6 119.3 266.9 119.3C268.4 119.3 269.8 119.1 271 118.6C272.2 118.1 273.2 117.4 273.9 116.5C274.6 115.6 275 114.6 275 113.4C275 112.3 274.7 111.4 274.1 110.7C273.5 110 272.7 109.5 271.7 109C270.7 108.6 269.6 108.2 268.5 107.9L264.5 106.7C261.9 106 259.9 104.9 258.4 103.6C256.9 102.2 256.2 100.5 256.2 98.2C256.2 96.4 256.7 94.8 257.7 93.4C258.7 92 260 91 261.7 90.2C263.4 89.4 265.3 89 267.4 89C269.5 89 271.4 89.4 273 90.1C274.6 90.8 275.9 91.9 276.9 93.2C277.9 94.5 278.4 96 278.4 97.6H274.5ZM298.8 122.1V89.4H302.8V105.6H303.2L317.9 89.4H323.1L309.3 104.1L323 122.1H318.2L306.9 106.9L302.8 111.5V122.1H298.8ZM367.8 122.1V89.4H379.2C381.5 89.4 383.4 89.8 384.8 90.6C386.3 91.4 387.4 92.4 388.1 93.7C388.8 95 389.2 96.5 389.2 98.1C389.2 99.5 389 100.7 388.4 101.6C387.9 102.5 387.3 103.2 386.4 103.8C385.6 104.3 384.7 104.7 383.8 105V105.3C384.8 105.4 385.8 105.7 386.8 106.4C387.8 107 388.7 108 389.3 109.1C389.9 110.2 390.3 111.8 390.3 113.5C390.3 115.1 389.9 116.6 389.2 117.9C388.5 119.2 387.3 120.2 385.7 121C384.1 121.8 382 122.2 379.4 122.2H367.8V122.1ZM371.8 118.6H379.7C382.3 118.6 384.1 118.1 385.2 117.1C386.3 116.1 386.8 114.9 386.8 113.4C386.8 112.3 386.5 111.3 386 110.3C385.4 109.4 384.6 108.6 383.6 108C382.6 107.4 381.3 107.1 379.9 107.1H371.8V118.6ZM371.8 103.8H379.2C380.4 103.8 381.5 103.6 382.4 103.1C383.4 102.6 384.1 102 384.7 101.1C385.3 100.2 385.6 99.2 385.6 98.1C385.6 96.7 385.1 95.4 384.1 94.4C383.1 93.4 381.5 92.9 379.3 92.9H371.8V103.8ZM410.6 122.1V89.4H421.7C424.3 89.4 426.4 89.8 428 90.7C429.6 91.6 430.9 92.8 431.6 94.3C432.4 95.8 432.8 97.5 432.8 99.5C432.8 101.4 432.4 103.1 431.6 104.6C430.8 106.1 429.6 107.3 428 108.1C426.4 108.9 424.3 109.4 421.8 109.4H412.9V105.8H421.7C423.4 105.8 424.9 105.5 425.9 105C427 104.5 427.8 103.8 428.2 102.8C428.7 101.9 428.9 100.7 428.9 99.4C428.9 98.1 428.7 96.9 428.2 96C427.7 95 426.9 94.3 425.9 93.7C424.8 93.2 423.4 92.9 421.6 92.9H414.6V122.1H410.6ZM426 107.4L434.1 122.1H429.5L421.6 107.4H426ZM454.2 122.1H450L462 89.4H466.1L478.1 122.1H473.9L464.1 94.6H463.8L454.2 122.1ZM455.8 109.3H472.5V112.8H455.8V109.3ZM522.7 89.4V122.1H518.9L501.1 96.4H500.8V122.1H496.8V89.4H500.6L518.5 115.2H518.8V89.4H522.7ZM554.3 122.1H544.2V89.4H554.7C557.9 89.4 560.6 90.1 562.8 91.4C565.1 92.7 566.8 94.6 568 97C569.2 99.4 569.8 102.3 569.8 105.7C569.8 109.1 569.2 112 568 114.5C566.8 117 565 118.8 562.7 120.2C560.4 121.4 557.6 122.1 554.3 122.1ZM548.1 118.6H554C556.7 118.6 558.9 118.1 560.7 117C562.5 116 563.8 114.5 564.7 112.5C565.6 110.6 566 108.3 566 105.6C566 103 565.6 100.7 564.7 98.8C563.8 96.9 562.5 95.4 560.8 94.4C559.1 93.4 556.9 92.8 554.4 92.8H548.1V118.6Z" fill="black"/>
<path d="M190 79H202V34H208V22H183V34H190V79ZM234 79H246L241 22H221L215 79H228V70H234V79ZM229 60L230.5 33L233 60H229ZM255 79H278V68H267V22H255V79ZM299 67V55H310V44H299V34H310V22H287V79H311V67H299ZM337 22L336.5 48L332 22H320V79H332L331.5 51.5L337 79H348V22H337ZM363 79H376V34H382V22H357V34H363V79Z" fill="#98324E"/>
<path d="M423 22L420.5 57L418 22H406L403.5 57L401 22H389L393.2 47.5L395 79H410L411.5 52L414 79H429L435 22H423ZM457.5 79C474.5 78 471 62.5 471 47.4C471 32.3 471 21.5 457 21C443 21.5 443 32.4 443 47.5C443 62.6 440 78.5 457.5 79ZM457 69C453.5 68.5 454 57 454 47.4C454 45 453.5 32 457 32C460.5 32 459.97 44.5 460 47.4C460.1 57.1 460.13 69.4472 457 69ZM509 79L508 52L503 49.5C506.4 46.7 509 46.6 509 39C509 27.7 507 23.5 501 22H481V79H493.1V53H495L497 55V79H509ZM498 38C498.008 37.5 498.5 43 496 43H493.1V33H497C498.5 34 498 38 498 38ZM536 79H548L540 48L547 22H535L530.5 45L531 22H518.1V79H531L530 59.5L530.5 51L536 79ZM585 79L578 48.5L583 22H571L569.5 41L567 22H555L561 48.5L554 79H567L569.5 57L572 79H585Z" fill="#737373"/>
<path fill-rule="evenodd" clip-rule="evenodd" d="M6.4 79.2C9.1 38.5 42.7 6.4 83.9 6.4C125 6.4 158.7 38.5 161.4 79.2H167.8C165 35 128.5 0 83.9 0C39.2 0 2.7 35 0 79.2H6.4Z" fill="#98324E"/>
<path fill-rule="evenodd" clip-rule="evenodd" d="M92.9 35.9V29.5V20.2C123 24.3 146.5 48.8 149 79.1H154.8C152.1 43.3 122.2 14 86.5 14V19.6V28.8V35.1V54.3L92.9 59.8V35.9Z" fill="#98324E"/>
<path fill-rule="evenodd" clip-rule="evenodd" d="M13 79.2H18.8C21.2 48.8 44.8 24.3 75 20.2V29.4V35.8V59.8L81.4 54.3V35.1V28.8V19.6V14C45.6 14.1 15.7 43.4 13 79.2Z" fill="#98324E"/>
<path fill-rule="evenodd" clip-rule="evenodd" d="M104.6 39.5001C120.2 46.6001 131.4 61.5001 133.4 79.1001H139.8C137.6 55.7001 120.7 36.5001 98.4 30.6001H98.3V37.1001V69.7001L83.9 57.1001L69.5 69.8001V37.1001V30.6001C69.4 30.6001 69.3 30.6001 69.2 30.7001C46.6 38.2001 30.4 54.3001 28 79.2001H34.4C36.3 61.6001 47.6 46.7001 63.1 39.6001V83.6001L67.9 79.5001L83.9 66.0001L98.2 78.0001L99.5 79.1001L104.6 83.5001V39.5001Z" fill="#98324E"/>
</svg>
