<svg width="399" height="197" viewBox="0 0 399 197" fill="none" xmlns="http://www.w3.org/2000/svg">
<rect width="399" height="197" fill="black"/>
<path fill-rule="evenodd" clip-rule="evenodd" d="M366.966 197H398.969C397.63 87.9713 308.831 0 199.485 0C90.1383 0 1.33883 87.9713 -6.86646e-05 197H32.0029C33.3394 105.645 107.812 32 199.485 32C291.157 32 365.63 105.645 366.966 197Z" fill="#D19F9E"/>
<path fill-rule="evenodd" clip-rule="evenodd" d="M336.492 104.235L363.019 86.3323C300.917 -3.29155 178.1 -26.5346 87.4638 34.635C-3.17227 95.8046 -27.5651 218.399 32.3171 309.52L58.844 291.618C8.84677 215.147 29.3782 112.442 105.365 61.1595C181.352 9.87658 284.279 29.2595 336.492 104.235Z" fill="#97144D"/>
</svg>
